<svg width="138" height="26" viewBox="0 0 138 26" fill="none" xmlns="http://www.w3.org/2000/svg">
<path d="M33.2901 8.85306C30.2855 10.6571 30.2589 15.2735 33.237 16.8388C35.2844 17.9265 38.6878 17.449 39.2728 15.9898C39.5387 15.2469 39.0867 15.2204 38.3422 15.9367C36.0821 18.0592 33.689 16.4673 33.6624 12.8061C33.6624 10.8429 34.2474 9.62245 35.4971 9.03877C36.3745 8.61428 36.4809 8.61428 37.3849 9.03877C37.8901 9.30408 38.5283 9.86122 38.7676 10.2857C39.0069 10.7102 39.2994 11.0816 39.4323 11.0816C39.5387 11.0816 39.6185 10.4184 39.6185 9.62245C39.6185 8.29591 39.3526 7.79183 38.9537 8.40204C38.874 8.56122 38.4751 8.56122 37.9433 8.40204C36.3479 7.95102 34.5133 8.1102 33.2901 8.85306Z" fill="#979899"/>
<path d="M82.5873 8.64079C82.2948 9.54284 82.6936 10.0469 83.5977 9.96732C84.3156 9.88773 84.4219 9.78161 84.4219 9.09181C84.4219 8.40202 84.3156 8.2959 83.5711 8.2163C82.9329 8.16324 82.6936 8.24284 82.5873 8.64079Z" fill="#979899"/>
<path d="M97.9029 8.85306C94.8982 10.6571 94.8717 15.2735 97.8497 16.8388C99.8971 17.9265 103.301 17.449 103.886 15.9898C104.151 15.2469 103.699 15.2204 102.955 15.9367C100.695 18.0592 98.3017 16.4673 98.2751 12.8061C98.2751 10.8429 98.8601 9.62245 100.11 9.03877C100.987 8.61428 101.094 8.61428 101.998 9.03877C102.503 9.30408 103.141 9.86122 103.38 10.2857C103.62 10.7102 103.912 11.0816 104.045 11.0816C104.151 11.0816 104.231 10.4184 104.231 9.62245C104.231 8.29591 103.965 7.79183 103.566 8.40204C103.487 8.56122 103.088 8.56122 102.556 8.40204C100.961 7.95102 99.126 8.1102 97.9029 8.85306Z" fill="#979899"/>
<path d="M119.813 8.64079C119.52 9.54284 119.919 10.0469 120.823 9.96732C121.541 9.88773 121.647 9.78161 121.647 9.09181C121.647 8.40202 121.541 8.2959 120.797 8.2163C120.158 8.16324 119.919 8.24284 119.813 8.64079Z" fill="#979899"/>
<path d="M40.7618 8.9061C41.1341 9.30406 41.2139 10.0204 41.2139 12.8061C41.2139 15.5918 41.1341 16.3081 40.7618 16.7061C40.3364 17.1571 40.4693 17.1837 43.8728 17.1837C47.2763 17.1837 47.4092 17.1571 46.9838 16.7061C46.6381 16.3347 46.5318 15.6979 46.5318 14.053C46.5318 12.4612 46.4254 11.7979 46.1063 11.5061C45.6277 11.0286 44.3514 10.949 43.5803 11.3469C43.1017 11.6122 43.0751 11.5326 43.0751 10.0204V8.42855H41.6925C40.3896 8.42855 40.363 8.45508 40.7618 8.9061ZM44.6705 14.3979C44.6705 16.5204 44.2451 17.2898 43.474 16.653C42.889 16.1755 42.9156 13.0183 43.5271 12.3551C44.2717 11.5326 44.6705 12.2224 44.6705 14.3979Z" fill="#979899"/>
<path d="M65.6763 8.95917C66.0485 9.3306 66.2081 9.83468 66.2081 10.6041C66.2081 11.4796 66.1283 11.6388 65.889 11.4C65.2774 10.7898 63.8416 11.0286 62.9907 11.851C62.326 12.5408 62.2196 12.8326 62.2196 14.1326C62.2196 15.6979 62.7248 17.0245 63.4162 17.2898C64.0809 17.5286 65.1179 17.4755 65.7029 17.1837C66.0485 16.9714 66.2081 16.9979 66.2081 17.2102C66.2081 17.3959 66.5803 17.449 67.3514 17.3163C68.7075 17.0775 69.0266 16.8388 68.4682 16.3877C68.1491 16.1224 68.0693 15.353 68.0693 12.249V8.42856H66.6069H65.1445L65.6763 8.95917ZM65.9422 12.4347C66.1017 12.7 66.2081 13.549 66.2081 14.3449C66.2081 15.4592 66.0751 15.8837 65.6497 16.2816C65.1179 16.7592 65.0913 16.7592 64.719 16.2551C64.267 15.6449 64.2138 12.3816 64.6393 11.9571C65.0115 11.5857 65.6231 11.7979 65.9422 12.4347Z" fill="#979899"/>
<path d="M134.224 8.74692C134.676 9.19794 134.676 16.4143 134.224 16.8653C133.985 17.1041 134.304 17.1837 135.766 17.1837C137.149 17.1571 137.495 17.1041 137.149 16.8918C136.724 16.653 136.671 16.149 136.671 12.5408V8.42855H135.288C134.224 8.42855 133.985 8.50814 134.224 8.74692Z" fill="#979899"/>
<path d="M123.854 10.5775C123.163 11.2939 122.764 11.8775 122.95 11.8775C123.216 11.8775 123.349 12.5143 123.429 14.2388C123.482 15.6449 123.668 16.7857 123.881 17.0245C124.572 17.8469 126.832 17.3428 126.832 16.3612C126.832 16.0428 126.38 16.0428 126.168 16.3877C125.769 17.051 125.503 16.1755 125.503 14.1061V11.8775H126.301C126.753 11.8775 127.098 11.7449 127.098 11.6122C127.098 11.453 126.753 11.3469 126.301 11.3469C125.556 11.3469 125.503 11.2939 125.503 10.2857C125.503 9.70203 125.423 9.22448 125.317 9.25101C125.184 9.27754 124.546 9.86121 123.854 10.5775Z" fill="#979899"/>
<path d="M49.1376 11.4796C47.7815 12.2224 47.9942 13.8408 49.43 13.6816C50.015 13.602 50.1214 13.4694 50.1214 12.7531C50.1214 11.7184 50.3873 11.4265 50.9191 11.8775C51.7167 12.5408 51.3977 13.4163 50.2011 14.0265C49.563 14.3449 48.8451 14.7694 48.6058 15.0082C48.0474 15.4592 47.9676 16.6531 48.4462 17.1306C48.8717 17.5551 50.015 17.5286 50.7063 17.051C51.2115 16.7061 51.2913 16.7061 51.4243 17.051C51.6104 17.5816 53.2855 17.5816 53.711 17.051C53.9503 16.7857 53.9503 16.6531 53.7376 16.6531C53.5514 16.6531 53.4451 15.9367 53.4451 14.5571C53.4451 11.8245 52.9399 11.0816 51.1052 11.0816C50.4139 11.1082 49.5364 11.2673 49.1376 11.4796ZM51.052 16.1224C50.8925 16.4143 50.6532 16.6 50.4936 16.5204C50.0948 16.2551 50.2277 15.2735 50.7329 14.7163C51.185 14.2122 51.185 14.2122 51.2647 14.8755C51.3179 15.2469 51.2115 15.8041 51.052 16.1224Z" fill="#979899"/>
<path d="M57.6196 11.5326C57.3271 11.8245 57.1676 11.8775 57.1676 11.6653C57.1676 11.453 56.689 11.3469 55.7849 11.3469C54.4821 11.3469 54.4555 11.3735 54.8543 11.8245C55.2 12.1959 55.3063 12.8326 55.3063 14.2653C55.3063 15.6979 55.2 16.3347 54.8543 16.7061C54.4289 17.1571 54.5618 17.1837 57.9653 17.1837C61.3688 17.1837 61.5017 17.1571 61.0763 16.7061C60.7306 16.3347 60.6243 15.6979 60.6243 14.053C60.6243 12.4612 60.5179 11.7979 60.1988 11.5061C59.6404 10.949 58.2046 10.9755 57.6196 11.5326ZM58.763 14.3979C58.763 16.5204 58.3375 17.2898 57.5664 16.653C57.0081 16.202 57.0347 13.2571 57.593 12.4612C58.311 11.4265 58.763 12.1694 58.763 14.3979Z" fill="#979899"/>
<path d="M70.6751 11.4796C69.3191 12.2224 69.5318 13.8408 70.9676 13.6816C71.5526 13.602 71.6589 13.4694 71.6589 12.7531C71.6589 11.7184 71.9248 11.4265 72.4566 11.8775C73.2543 12.5408 72.9352 13.4163 71.7387 14.0265C71.1006 14.3449 70.3826 14.7694 70.1433 15.0082C69.5849 15.4592 69.5052 16.6531 69.9838 17.1306C70.4092 17.5551 71.5526 17.5286 72.2439 17.051C72.7491 16.7061 72.8289 16.7061 72.9618 17.051C73.148 17.5816 74.8231 17.5816 75.2485 17.051C75.4878 16.7857 75.4878 16.6531 75.2751 16.6531C75.089 16.6531 74.9826 15.9367 74.9826 14.5571C74.9826 11.8245 74.4774 11.0816 72.6428 11.0816C71.9514 11.1082 71.074 11.2673 70.6751 11.4796ZM72.5896 16.1224C72.43 16.4143 72.1907 16.6 72.0312 16.5204C71.6323 16.2551 71.7653 15.2735 72.2705 14.7163C72.7225 14.2122 72.7225 14.2122 72.8023 14.8755C72.8555 15.2469 72.7491 15.8041 72.5896 16.1224Z" fill="#979899"/>
<path d="M79.4231 11.5326C79.1306 11.8245 78.9711 11.8775 78.9711 11.6653C78.9711 11.4531 78.4659 11.3469 77.4555 11.3469C76.2855 11.3735 76.0196 11.4265 76.3919 11.6388C76.7641 11.851 76.8439 12.302 76.8439 14.2653C76.8439 16.2286 76.7641 16.6796 76.3919 16.8918C76.0196 17.1041 76.4185 17.1571 77.9075 17.1571C79.3965 17.1571 79.7953 17.1041 79.4497 16.8918C79.0774 16.6796 78.9711 16.2551 78.9711 14.9551C78.9711 13.3102 79.4763 11.9837 79.8751 12.6204C79.9815 12.8061 80.3537 12.9388 80.6994 12.9388C81.178 12.9388 81.3907 12.7531 81.5237 12.302C81.6034 11.9306 81.6034 11.5061 81.4971 11.3735C81.2312 10.9224 79.9283 11.0286 79.4231 11.5326Z" fill="#979899"/>
<path d="M86.8948 11.4796C85.5387 12.2224 85.7514 13.8408 87.1873 13.6816C87.7722 13.602 87.8786 13.4694 87.8786 12.7531C87.8786 11.7184 88.1445 11.4265 88.6763 11.8775C89.474 12.5408 89.1549 13.4163 87.9584 14.0265C87.3202 14.3449 86.6023 14.7694 86.363 15.0082C85.8046 15.4592 85.7248 16.6531 86.2034 17.1306C86.6289 17.5551 87.7722 17.5286 88.4636 17.051C88.9688 16.7061 89.0485 16.7061 89.1815 17.051C89.3676 17.5816 91.0427 17.5816 91.4682 17.051C91.7075 16.7857 91.7075 16.6531 91.4948 16.6531C91.3086 16.6531 91.2023 15.9367 91.2023 14.5571C91.2023 11.8245 90.6971 11.0816 88.8624 11.0816C88.1711 11.1082 87.2936 11.2673 86.8948 11.4796ZM88.8092 16.1224C88.6497 16.4143 88.4104 16.6 88.2508 16.5204C87.852 16.2551 87.9849 15.2735 88.4901 14.7163C88.9422 14.2122 88.9422 14.2122 89.0219 14.8755C89.0751 15.2469 88.9688 15.8041 88.8092 16.1224Z" fill="#979899"/>
<path d="M106.305 11.4796C104.949 12.2224 105.162 13.8408 106.598 13.6816C107.183 13.602 107.289 13.4694 107.289 12.7531C107.289 11.7184 107.555 11.4265 108.087 11.8775C108.884 12.5408 108.565 13.4163 107.369 14.0265C106.731 14.3449 106.013 14.7694 105.773 15.0082C105.215 15.4592 105.135 16.6531 105.614 17.1306C106.039 17.5551 107.183 17.5286 107.874 17.051C108.379 16.7061 108.459 16.7061 108.592 17.051C108.778 17.5816 110.453 17.5816 110.879 17.051C111.118 16.7857 111.118 16.6531 110.905 16.6531C110.719 16.6531 110.613 15.9367 110.613 14.5571C110.613 11.8245 110.107 11.0816 108.273 11.0816C107.581 11.1082 106.704 11.2673 106.305 11.4796ZM108.22 16.1224C108.06 16.4143 107.821 16.6 107.661 16.5204C107.262 16.2551 107.395 15.2735 107.901 14.7163C108.353 14.2122 108.353 14.2122 108.432 14.8755C108.486 15.2469 108.379 15.8041 108.22 16.1224Z" fill="#979899"/>
<path d="M115.053 11.2408C114.947 11.3469 114.069 11.4 113.086 11.4C111.703 11.3469 111.384 11.4 111.756 11.6122C112.155 11.8775 112.208 12.3816 112.208 15.7245C112.208 19.0939 112.155 19.5714 111.756 19.8102C111.384 20.0224 111.783 20.0755 113.272 20.0755C114.761 20.0755 115.16 20.0224 114.814 19.8102C114.468 19.6245 114.335 19.2 114.335 18.3775C114.335 17.2102 114.335 17.2102 115.133 17.3428C116.329 17.6082 117.234 17.2633 117.792 16.3082C119.015 14.3184 118.058 11.2939 116.17 11.1347C115.665 11.0816 115.16 11.1347 115.053 11.2408ZM116.09 13.1245C116.303 14.2653 116.09 16.3347 115.691 16.7326C115.505 16.9184 115.266 16.8653 114.867 16.5204C114.442 16.149 114.335 15.6979 114.335 14.3714C114.335 13.2306 114.468 12.5939 114.734 12.302C115.319 11.7184 115.877 12.0633 116.09 13.1245Z" fill="#979899"/>
<path d="M128.64 11.4796C127.284 12.2224 127.497 13.8408 128.933 13.6816C129.518 13.602 129.624 13.4694 129.624 12.7531C129.624 11.7184 129.89 11.4265 130.422 11.8775C131.22 12.5408 130.901 13.4163 129.704 14.0265C129.066 14.3449 128.348 14.7694 128.109 15.0082C127.55 15.4592 127.47 16.6531 127.949 17.1306C128.375 17.5551 129.518 17.5286 130.209 17.051C130.714 16.7061 130.794 16.7061 130.927 17.051C131.113 17.5816 132.788 17.5816 133.214 17.051C133.453 16.7857 133.453 16.6531 133.24 16.6531C133.054 16.6531 132.948 15.9367 132.948 14.5571C132.948 11.8245 132.443 11.0816 130.608 11.0816C129.917 11.1082 129.039 11.2673 128.64 11.4796ZM130.555 16.1224C130.395 16.4143 130.156 16.6 129.996 16.5204C129.598 16.2551 129.731 15.2735 130.236 14.7163C130.688 14.2122 130.688 14.2122 130.768 14.8755C130.821 15.2469 130.714 15.8041 130.555 16.1224Z" fill="#979899"/>
<path d="M82.1086 11.6653C82.5341 12.0898 82.5341 16.4408 82.1086 16.8653C81.8693 17.1041 82.1884 17.1837 83.6508 17.1837C85.0335 17.1571 85.3792 17.1041 85.0335 16.8918C84.6347 16.6796 84.5549 16.2286 84.5549 14V11.3469H83.1722C82.1086 11.3469 81.8693 11.4265 82.1086 11.6653Z" fill="#979899"/>
<path d="M119.334 11.6653C119.76 12.0898 119.76 16.4408 119.334 16.8653C119.095 17.1041 119.414 17.1837 120.876 17.1837C122.259 17.1571 122.605 17.1041 122.259 16.8918C121.86 16.6796 121.78 16.2286 121.78 14V11.3469H120.398C119.334 11.3469 119.095 11.4265 119.334 11.6653Z" fill="#979899"/>
<path d="M7.1526 3.3694C6.83353 3.92655 6.19538 5.04083 5.71677 5.83675C5.23815 6.63267 4.06821 8.64899 3.11099 10.2939C2.12717 11.9388 1.32948 13.398 1.32948 13.5306C1.32948 13.6633 2.63237 15.998 4.22775 18.7572L7.09943 23.7449L8.37573 23.8245C9.06706 23.8776 9.75838 23.798 9.89133 23.6653C10.0243 23.5327 8.93411 21.4367 7.31214 18.6245C5.76995 15.998 4.52023 13.7163 4.52023 13.5837C4.52023 13.3184 8.80116 5.86328 9.59885 4.74899C10.0775 4.0592 10.0775 4.00614 9.65203 3.21022C8.9607 2.01634 7.95029 2.0694 7.1526 3.3694Z" fill="#979899"/>
<path d="M10.1572 2.57348C10.2104 2.70614 11.3006 4.58981 12.6301 6.79185L15.0231 10.7714L16.9376 11.4612C18.0012 11.8592 18.8786 12.098 18.8786 12.0184C18.8786 11.9653 17.6023 9.76328 16.0601 7.13675L13.2416 2.38777H11.6462C10.7688 2.38777 10.1041 2.46736 10.1572 2.57348Z" fill="#979899"/>
<path d="M14.1457 2.97142C14.3584 3.31632 15.7145 5.57142 17.1237 8.01224C19.4104 11.8857 19.8358 12.4694 20.6069 12.7347C21.5376 13.0265 22.6278 12.6816 22.6012 12.0714C22.5746 11.9388 21.3249 9.7102 19.8093 7.16326L17.0705 2.5204L15.3954 2.44081L13.7468 2.36122L14.1457 2.97142Z" fill="#979899"/>
<path d="M17.8682 2.73265C18.0012 3.28979 22.9734 11.6735 23.1861 11.6735C23.5052 11.6735 25.2335 10.4796 25.2601 10.2673C25.2601 10.1347 24.2231 8.3306 22.9734 6.20816L20.7133 2.38775H19.2509C18.1607 2.38775 17.7884 2.49387 17.8682 2.73265Z" fill="#979899"/>
<path d="M7.71099 8.80817C6.32833 11.1429 5.15839 13.2388 5.10521 13.398C5.05203 13.5837 5.637 14.7776 6.4081 16.0776C7.15261 17.3776 8.32255 19.3674 8.9607 20.4816C9.62544 21.6225 10.2636 22.551 10.3699 22.551C10.4763 22.551 10.7156 22.1796 10.9017 21.7286C11.0879 21.2776 11.4069 20.7469 11.6197 20.5612C11.9121 20.2694 11.6728 19.6857 10.1041 17.0061C9.09365 15.2816 8.24278 13.6898 8.24278 13.5041C8.24278 13.3449 9.06706 11.8327 10.1041 10.1612L11.9387 7.13674L11.3006 6.07552C10.9283 5.51837 10.6358 4.9347 10.6358 4.77551C10.6358 4.03266 10.0243 4.88164 7.71099 8.80817Z" fill="#979899"/>
<path d="M11.3006 9.07346C10.8751 9.84285 10.1306 11.0898 9.65202 11.8592C9.17341 12.6286 8.77457 13.3714 8.77457 13.5306C8.77457 13.9816 12.0185 19.3673 12.2844 19.3673C12.3908 19.3673 12.4971 19.2612 12.4971 19.1286C12.4971 19.0224 12.7896 18.4653 13.1618 17.9347L13.8 16.9796L12.896 15.4673C12.3908 14.6184 11.9653 13.7959 11.9653 13.6102C11.9653 13.4245 12.3642 12.602 12.8694 11.7796L13.8 10.2673L13.1353 9.25918C12.7896 8.70203 12.4971 8.11836 12.4971 7.95918C12.4971 7.32244 11.9919 7.79999 11.3006 9.07346Z" fill="#979899"/>
<path d="M16.5121 13.5306C16.4058 13.6102 15.1295 15.6796 13.6937 18.1735C12.2578 20.6408 10.9017 22.949 10.689 23.2674C10.3168 23.8776 10.3168 23.8776 11.9121 23.8776H13.5341L14.252 22.6041C15.741 20.0306 17.6555 16.7939 18.6393 15.1755C19.2243 14.247 19.6763 13.4776 19.6763 13.451C19.6763 13.3449 16.6983 13.398 16.5121 13.5306Z" fill="#979899"/>
<path d="M20.1017 13.7959C19.889 14.0082 18.6393 16.1041 17.2832 18.4388C15.9272 20.7735 14.6509 22.949 14.4382 23.2939L14.0659 23.9041L15.6879 23.8245L17.3364 23.7449L19.5168 20.0306C20.7133 17.9878 22.0694 15.6531 22.5214 14.8571L23.3723 13.398H21.9098C20.926 13.398 20.3145 13.5306 20.1017 13.7959Z" fill="#979899"/>
<path d="M23.7977 13.7959C23.6116 14.0082 22.2023 16.3694 20.6601 19.049L17.8416 23.9041L19.4636 23.8245L21.059 23.7449L22.9468 20.5612C25.8717 15.5735 26.8555 13.8225 26.8555 13.6102C26.8555 13.2122 24.1699 13.3714 23.7977 13.7959Z" fill="#979899"/>
</svg>
