<svg width="107" height="14" viewBox="0 0 107 14" fill="none" xmlns="http://www.w3.org/2000/svg">
<g clip-path="url(#clip0_1_1088)">
<path d="M29.948 4.92788C29.3147 4.28595 28.4814 3.9563 27.4647 3.9563C26.3147 3.9563 25.4147 4.42475 24.7814 5.34427V0.798676H22.9814V12.9434H24.7814V8.44985C24.7814 7.56502 24.9813 6.87104 25.3813 6.35054C25.7814 5.83006 26.348 5.56981 27.0646 5.56981C27.7313 5.56981 28.2314 5.79536 28.5813 6.2291C28.9313 6.68019 29.1146 7.32212 29.1146 8.15493V12.9434H30.9147V8.05078C30.9147 6.62814 30.5813 5.58717 29.948 4.92788Z" fill="#979899"/>
<path d="M40.035 4.06039H38.235V8.46716C38.235 9.38669 38.0349 10.1154 37.6516 10.6359C37.2516 11.1564 36.7183 11.4166 36.035 11.4166C35.3683 11.4166 34.8849 11.1911 34.5516 10.74C34.2183 10.2889 34.0516 9.62962 34.0516 8.76216V4.06039H32.2516V8.953C32.2516 10.393 32.5516 11.434 33.185 12.0759C33.8016 12.7352 34.6183 13.0475 35.6183 13.0475C36.7183 13.0475 37.6016 12.6485 38.2516 11.8157L38.4516 12.9434H40.035V4.06039Z" fill="#979899"/>
<path d="M43.0755 10.0113H41.3421C41.3588 10.9655 41.7255 11.7115 42.4254 12.2494C43.1254 12.7872 44.0588 13.0475 45.2088 13.0475C45.8754 13.0475 46.4921 12.9434 47.0421 12.7178C47.5755 12.4923 48.0088 12.1627 48.3254 11.7462C48.6254 11.3298 48.7922 10.8268 48.7922 10.2715C48.7922 9.64699 48.6421 9.16114 48.3421 8.79683C48.0421 8.43245 47.6421 8.17222 47.1422 7.99876C46.6421 7.82522 46.0255 7.70383 45.2921 7.61705C44.7421 7.54765 44.3421 7.4956 44.1088 7.44355C43.8588 7.3915 43.6588 7.30476 43.4921 7.16596C43.3255 7.02717 43.2588 6.83632 43.2588 6.55873C43.2588 6.21173 43.4088 5.91679 43.7421 5.7086C44.0588 5.5004 44.4754 5.3963 45.0088 5.3963C45.5255 5.3963 45.9588 5.5351 46.3088 5.79534C46.6421 6.05559 46.8421 6.38523 46.8921 6.78427H48.6421C48.5754 5.88209 48.2088 5.1881 47.5421 4.68497C46.8755 4.19918 45.9921 3.93893 44.9255 3.93893C44.2588 3.93893 43.6754 4.06038 43.1588 4.28593C42.6422 4.52882 42.2421 4.85846 41.9422 5.27485C41.6421 5.69124 41.5088 6.17703 41.5088 6.71487C41.5088 7.30476 41.6421 7.75583 41.9422 8.10283C42.2421 8.44983 42.6255 8.69276 43.1088 8.84883C43.5922 9.00499 44.2088 9.12645 44.9588 9.21322C45.4922 9.2826 45.8921 9.35199 46.1588 9.42137C46.4254 9.49083 46.6255 9.59491 46.7921 9.73368C46.9421 9.88983 47.0255 10.1154 47.0255 10.4104C47.0255 10.7747 46.8421 11.0696 46.5088 11.2778C46.1755 11.486 45.7254 11.5901 45.1921 11.5901C44.5755 11.5901 44.0754 11.4513 43.6921 11.1564C43.3088 10.8615 43.1088 10.4798 43.0755 10.0113Z" fill="#979899"/>
<path d="M50.6355 5.70861V10.5318C50.6355 11.3645 50.8188 11.9719 51.1855 12.3535C51.5521 12.7525 52.1521 12.9434 52.9688 12.9434H54.7021V11.2952H53.3354C53.0022 11.2952 52.7854 11.2258 52.6521 11.087C52.5188 10.9482 52.4522 10.6879 52.4522 10.3409V5.70861H54.5022V4.0604H52.4522V1.57941H50.6355V4.0604H49.1522V5.70861H50.6355Z" fill="#979899"/>
<path d="M56.0015 0.798676V12.9434H57.8015V0.798676H56.0015Z" fill="#979899"/>
<path d="M59.5992 6.125C59.2492 6.81898 59.0826 7.61707 59.0826 8.51924C59.0826 9.42139 59.2492 10.2195 59.6159 10.8962C59.9826 11.5902 60.4826 12.1106 61.1492 12.4923C61.8159 12.874 62.5826 13.0475 63.4825 13.0475C64.4993 13.0475 65.3492 12.7699 66.0326 12.18C66.7159 11.6075 67.1326 10.8615 67.2992 9.95924H65.4992C65.3659 10.4624 65.1159 10.8441 64.7493 11.1217C64.3659 11.3993 63.8992 11.5207 63.3492 11.5207C62.6492 11.5207 62.0826 11.2952 61.6659 10.8441C61.2326 10.393 60.9992 9.78578 60.9659 9.00501V8.90093H67.3992C67.4326 8.65801 67.4492 8.43247 67.4492 8.18962C67.4326 7.33948 67.2493 6.59344 66.8826 5.95151C66.5159 5.32692 66.0326 4.82378 65.3992 4.47679C64.7659 4.1298 64.0492 3.9563 63.2326 3.9563C62.4159 3.9563 61.6992 4.14715 61.0659 4.52884C60.4326 4.91053 59.9493 5.43101 59.5992 6.125ZM65.6159 7.53032H61.0326C61.0993 6.90574 61.3326 6.41994 61.7659 6.03825C62.1992 5.65656 62.6993 5.46571 63.2992 5.46571C63.9326 5.46571 64.4492 5.65656 64.8659 6.02091C65.2826 6.38524 65.5325 6.88838 65.6159 7.53032Z" fill="#979899"/>
<path d="M72.3223 4.06044H70.839V5.70864H72.3223V12.9433H74.1389V5.70864H76.4222V4.06044H74.1389V3.31443C74.1389 3.01948 74.1891 2.79394 74.3221 2.65515C74.4559 2.51635 74.6554 2.44696 74.9554 2.44696H76.4392V0.798767H74.7057C73.889 0.798767 73.289 1.00696 72.9056 1.406C72.5057 1.80503 72.3223 2.39491 72.3223 3.17563V4.06044Z" fill="#979899"/>
<path d="M85.4722 4.06042H83.6721V8.46715C83.6721 9.38669 83.4726 10.1154 83.089 10.6358C82.6893 11.1563 82.1557 11.4165 81.4722 11.4165C80.8057 11.4165 80.3224 11.191 79.9891 10.7399C79.6559 10.2888 79.4889 9.62953 79.4889 8.76207V4.06042H77.6888V8.95292C77.6888 10.3929 77.9888 11.4339 78.6221 12.0758C79.2391 12.7351 80.0556 13.0474 81.0554 13.0474C82.1557 13.0474 83.0388 12.6484 83.6891 11.8156L83.8886 12.9433H85.4722V4.06042Z" fill="#979899"/>
<path d="M94.0462 4.92789C93.4129 4.28597 92.5794 3.95633 91.5796 3.95633C90.3958 3.95633 89.4795 4.39006 88.8462 5.22283L88.6459 4.06042H87.0794V12.9433H88.8795V8.46714C88.8795 7.56499 89.0797 6.87102 89.4795 6.35054C89.8793 5.83006 90.446 5.56982 91.1628 5.56982C91.8293 5.56982 92.3296 5.79536 92.6791 6.22909C93.0124 6.68018 93.1957 7.32211 93.1957 8.15484V12.9433H95.0127V8.05076C95.0127 6.62813 94.6795 5.58717 94.0462 4.92789Z" fill="#979899"/>
<path d="M104.932 0.798767H103.133V5.29225C102.833 4.87587 102.466 4.56358 102 4.32069C101.533 4.0778 100.983 3.95635 100.366 3.95635C99.5994 3.95635 98.8996 4.14719 98.2996 4.52888C97.6826 4.91057 97.1993 5.43104 96.8498 6.12502C96.4995 6.81899 96.3333 7.59971 96.3333 8.50186C96.3333 9.43878 96.4995 10.2368 96.8498 10.9308C97.183 11.6248 97.6663 12.1452 98.2826 12.5096C98.8826 12.8739 99.5832 13.0474 100.366 13.0474C101.533 13.0474 102.466 12.579 103.149 11.6074L103.366 12.9433H104.932V0.798767ZM102.466 10.6532C102 11.2084 101.399 11.4686 100.666 11.4686C99.9164 11.4686 99.3164 11.2084 98.8664 10.6532C98.3994 10.098 98.1828 9.38671 98.1828 8.50186C98.1828 7.63441 98.3994 6.94044 98.8664 6.38526C99.3164 5.83008 99.9164 5.55249 100.666 5.55249C101.399 5.55249 102 5.83008 102.466 6.38526C102.916 6.94044 103.149 7.65176 103.149 8.53655C103.149 9.40401 102.916 10.1154 102.466 10.6532Z" fill="#979899"/>
<path d="M0.34736 10.4554L0.347342 10.4554C0.318334 10.4252 0.3 10.3817 0.3 10.334C0.3 10.2863 0.318303 10.2428 0.347433 10.2124L3.02836 7.4217L2.81201 7.21386L3.02836 7.4217C3.1671 7.27727 3.24302 7.08386 3.24302 6.88461C3.24302 6.68536 3.1671 6.49196 3.02836 6.34753L0.347361 3.55667C0.318329 3.52645 0.300001 3.48298 0.300001 3.43525C0.300001 3.38752 0.318329 3.34405 0.347361 3.31383L2.46113 1.11344L2.46114 1.11343C2.48977 1.08363 2.52598 1.06923 2.56108 1.06923C2.59616 1.06923 2.63238 1.08363 2.66102 1.11344L2.87737 0.905611L2.66102 1.11344L7.68165 6.33978C7.68167 6.3398 7.68168 6.33982 7.6817 6.33983C7.81853 6.48237 7.8974 6.67811 7.8974 6.88461C7.8974 7.09114 7.81851 7.2869 7.68165 7.42943L2.66104 12.6558C2.66103 12.6558 2.66103 12.6558 2.66102 12.6558C2.63236 12.6856 2.59613 12.7 2.56108 12.7C2.52602 12.7 2.48979 12.6856 2.46113 12.6558C2.46112 12.6558 2.46112 12.6558 2.46111 12.6558L0.34736 10.4554Z" fill="#979899" stroke="white" stroke-width="0.6"/>
<path d="M3.89986 10.4554L3.89988 10.4554L6.01363 12.6558C6.01364 12.6558 6.01365 12.6558 6.01365 12.6558C6.04232 12.6856 6.07854 12.7 6.1136 12.7C6.14865 12.7 6.18488 12.6856 6.21354 12.6558C6.21355 12.6558 6.21355 12.6558 6.21356 12.6558M3.89986 10.4554L6.42989 12.8636L6.21356 12.6558M3.89986 10.4554C3.87086 10.4252 3.85252 10.3817 3.85252 10.334M3.89986 10.4554L3.85252 10.334M6.21356 12.6558L11.2342 7.42943M6.21356 12.6558L11.2342 7.42943M11.2342 7.42943C11.2342 7.42941 11.2342 7.4294 11.2342 7.42938C11.371 7.28686 11.4499 7.09112 11.4499 6.88461C11.4499 6.67808 11.371 6.48232 11.2341 6.33978M11.2342 7.42943L11.2341 6.33978M6.36453 7.21386L6.58088 7.4217L3.89996 10.2124L6.36453 7.21386ZM6.36453 7.21386L6.58088 7.4217C6.71962 7.27727 6.79554 7.08386 6.79554 6.88461C6.79554 6.68536 6.71962 6.49196 6.58088 6.34753L3.89988 3.55667C3.87085 3.52645 3.85252 3.48297 3.85252 3.43525C3.85252 3.38753 3.87085 3.34405 3.89988 3.31383L6.01365 1.11344L6.01366 1.11343M6.36453 7.21386L6.01366 1.11343M6.01366 1.11343C6.04229 1.08363 6.0785 1.06923 6.1136 1.06923M6.01366 1.11343L6.1136 1.06923M3.85252 10.334C3.85252 10.2863 3.87079 10.2429 3.89988 10.2125L3.85252 10.334ZM6.1136 1.06923C6.14868 1.06923 6.1849 1.08363 6.21354 1.11344M6.1136 1.06923L6.21354 1.11344M6.21354 1.11344L11.2341 6.33978M6.21354 1.11344L11.2341 6.33978" fill="#979899" stroke="white" stroke-width="0.6"/>
<path d="M9.98242 12.8636L9.76607 12.6558L14.7867 7.42943C14.9236 7.2869 15.0025 7.09114 15.0025 6.88461C15.0025 6.67811 14.9236 6.48237 14.7868 6.33984C14.7868 6.33982 14.7868 6.3398 14.7867 6.33978L9.76607 1.11344L9.76605 1.11342C9.73744 1.08363 9.70121 1.06923 9.66615 1.06923C9.63107 1.06923 9.59485 1.08363 9.56625 1.11341L9.56622 1.11344L7.45244 3.31383C7.45243 3.31383 7.45243 3.31383 7.45243 3.31383C7.4234 3.34405 7.40507 3.38753 7.40507 3.43525C7.40507 3.48297 7.4234 3.52645 7.45243 3.55667L10.1334 6.34753L10.1335 6.34755C10.2721 6.49194 10.3481 6.68533 10.3481 6.88461C10.3481 7.08389 10.2721 7.27728 10.1335 7.42168L10.1334 7.4217L7.45251 10.2124L9.98242 12.8636ZM9.98242 12.8636L9.76607 12.6558C9.73743 12.6856 9.70119 12.7 9.66615 12.7C9.63111 12.7 9.59486 12.6856 9.56622 12.6558L9.34988 12.8636L9.56622 12.6558L7.45243 10.4554L7.45241 10.4554C7.42341 10.4252 7.40507 10.3817 7.40507 10.334C7.40507 10.2863 7.42334 10.2429 7.45243 10.2125L9.98242 12.8636Z" fill="#979899" stroke="white" stroke-width="0.6"/>
<path d="M13.686 7.42168L13.6859 7.4217L11.005 10.2124L13.686 7.42168ZM13.686 7.42168C13.8246 7.27728 13.9006 7.08389 13.9006 6.88461C13.9006 6.68533 13.8246 6.49194 13.686 6.34755L13.6859 6.34753M13.686 7.42168L13.6859 6.34753M13.6859 6.34753L11.005 3.55669C11.005 3.55668 11.005 3.55668 11.005 3.55667C10.9759 3.52642 10.9576 3.48294 10.9576 3.43525C10.9576 3.38756 10.9759 3.34408 11.005 3.31383C11.005 3.31382 11.005 3.31381 11.005 3.31381L13.1187 1.11344L13.1188 1.11341M13.6859 6.34753L13.1188 1.11341M13.1188 1.11341C13.1474 1.08363 13.1836 1.06923 13.2186 1.06923C13.2538 1.06923 13.29 1.08365 13.3186 1.11342L13.3186 1.11344M13.1188 1.11341L13.3186 1.11344M13.3186 1.11344L18.3392 6.33978C18.3393 6.3398 18.3393 6.33982 18.3393 6.33983C18.4761 6.48237 18.555 6.67811 18.555 6.88461C18.555 7.09112 18.4761 7.28686 18.3393 7.42938C18.3393 7.4294 18.3393 7.42941 18.3392 7.42943L13.3187 12.6557M13.3186 1.11344L13.3187 12.6557M13.3187 12.6557C13.2899 12.6856 13.2537 12.7 13.2186 12.7C13.1836 12.7 13.1474 12.6856 13.1187 12.6558L11.005 10.4554C10.9759 10.4252 10.9576 10.3817 10.9576 10.334C10.9576 10.2863 10.9759 10.2429 11.005 10.2125L13.3187 12.6557Z" fill="#979899" stroke="white" stroke-width="0.6"/>
</g>
<defs>
<clipPath id="clip0_1_1088">
<rect width="107" height="14" fill="white"/>
</clipPath>
</defs>
</svg>
