<svg width="75" height="19" viewBox="0 0 75 19" fill="none" xmlns="http://www.w3.org/2000/svg">
<path d="M18.0923 4.77236L17.6731 4.05715C17.5621 3.85984 17.3031 3.78586 17.1058 3.89684C17.0688 3.9215 17.0442 3.93383 17.0195 3.97083L16.0823 4.908C15.9467 5.05598 15.922 5.27794 16.033 5.43825C16.3783 5.95616 16.6496 6.5234 16.8469 7.1153C18.1416 10.975 16.07 15.1553 12.2226 16.4501C11.4704 16.709 10.6689 16.8324 9.86736 16.8324C8.65889 16.8324 7.47509 16.5364 6.4146 15.9815L8.00533 14.3908C10.7182 15.4143 13.764 14.0455 14.7875 11.3326C15.2931 9.97616 15.2315 8.48407 14.6026 7.17696C14.5039 6.96733 14.245 6.88101 14.0353 6.97966C13.9983 7.00432 13.949 7.02898 13.9243 7.06598L12.9748 8.01549C12.8762 8.11414 12.8269 8.26211 12.8639 8.41009L12.9502 8.75536C13.3448 10.4571 12.2966 12.1465 10.5949 12.5534C9.81803 12.7384 9.00417 12.6151 8.31361 12.2205L7.89435 11.9862C7.73404 11.8875 7.52441 11.9245 7.38877 12.0478L3.50442 15.9322C3.34411 16.0925 3.34411 16.3638 3.50442 16.5241C3.51675 16.5364 3.52908 16.5487 3.54141 16.5611L4.10865 17.005C5.76104 18.2751 7.78337 18.9657 9.86736 18.9533C15.0958 18.941 19.3378 14.699 19.3378 9.47058C19.3254 7.80585 18.8939 6.19046 18.0923 4.77236Z" fill="#979899"/>
<path d="M15.6137 1.9485C13.9613 0.678381 11.939 -0.0121689 9.85503 0.000162337C4.62657 0.000162337 0.384613 4.25445 0.384613 9.48291C0.384613 11.123 0.816207 12.7384 1.63007 14.1688L2.037 14.884C2.14798 15.0813 2.40694 15.1553 2.61657 15.0443C2.65357 15.032 2.67823 15.0073 2.70289 14.9827L3.64007 14.0455C3.77571 13.8975 3.80038 13.6756 3.68939 13.5152C3.34412 12.9973 3.07283 12.4301 2.87553 11.8382C1.58075 7.9785 3.6524 3.79819 7.49976 2.50341C8.25197 2.24445 9.0535 2.12114 9.85503 2.12114C11.0635 2.12114 12.2473 2.41709 13.3078 2.98433L11.7294 4.5504C9.01651 3.52691 5.97068 4.88335 4.94719 7.60856C4.72522 8.20046 4.60191 8.84169 4.60191 9.47058C4.60191 9.5569 4.62657 9.9515 4.6389 10.0255C4.70056 10.6297 4.8732 11.2216 5.13215 11.7642C5.2308 11.9738 5.48976 12.0602 5.69939 11.9615C5.73639 11.9368 5.78571 11.9122 5.81037 11.8752L6.75988 10.9257C6.85853 10.827 6.90786 10.679 6.87086 10.5311L6.78455 10.1858C6.38994 8.48408 7.4381 6.79469 9.12749 6.38776C9.90436 6.20279 10.7182 6.32611 11.4211 6.72071L11.8404 6.955C12.0007 7.05365 12.2103 7.01666 12.346 6.89335L16.2303 3.00899C16.3906 2.84869 16.3906 2.5774 16.2303 2.41709C16.218 2.40476 16.2056 2.39243 16.1933 2.3801L15.6137 1.9485Z" fill="#979899"/>
<path d="M31.5704 12.0725C31.4225 11.9492 31.2128 11.9615 31.0772 12.0848C30.4729 12.5534 29.7577 12.9973 28.7342 12.9973C26.8475 12.9973 25.3061 11.4066 25.3061 9.44593C25.3061 7.48526 26.8352 5.88219 28.7219 5.88219C29.5358 5.88219 30.4236 6.22746 31.0648 6.7947C31.1388 6.88102 31.2498 6.93035 31.3608 6.93035C31.4594 6.91802 31.5458 6.86869 31.6074 6.7947L32.224 6.16581C32.298 6.09182 32.3473 5.98084 32.3473 5.86986C32.3473 5.75888 32.2856 5.64789 32.2117 5.58624C31.1388 4.64906 30.066 4.2298 28.7096 4.2298C25.8364 4.2298 23.4934 6.58507 23.4934 9.48292C23.4934 12.3684 25.8241 14.6991 28.7096 14.6991C30.0167 14.7114 31.2868 14.2058 32.224 13.281C32.3103 13.1946 32.3473 13.0837 32.3473 12.9603C32.3473 12.8617 32.3103 12.7754 32.2363 12.7137L31.5704 12.0725ZM36.0467 4.37777H35.1218C34.9122 4.39011 34.7396 4.56274 34.7272 4.77237V14.1688C34.7272 14.3908 34.8999 14.5634 35.1218 14.5634H36.0467C36.2563 14.5511 36.4413 14.3784 36.4413 14.1688V4.77237C36.4289 4.55041 36.2563 4.37777 36.0467 4.37777ZM47.0585 7.53458C47.0585 5.79587 45.6281 4.37777 43.8524 4.37777H40.0174C39.7954 4.37777 39.6228 4.55041 39.6228 4.77237V14.1688C39.6228 14.3908 39.7954 14.5634 40.0174 14.5634H40.9299C41.1395 14.5511 41.3245 14.3784 41.3245 14.1688V10.6791H43.2481L45.0855 14.3661C45.1595 14.4894 45.2828 14.5634 45.4185 14.5634H46.5159C46.6516 14.5634 46.7872 14.5018 46.8612 14.3784C46.9352 14.2551 46.9352 14.0948 46.8612 13.9715L44.9869 10.4941C46.2693 9.91452 47.0585 8.8047 47.0585 7.53458ZM45.3321 7.55924C45.3321 8.44709 44.6046 9.19931 43.7414 9.19931H41.3615V6.0055H43.7414C44.6046 6.0055 45.3321 6.72072 45.3321 7.55924ZM57.0715 12.0725C56.9235 11.9492 56.7139 11.9615 56.5783 12.0848C55.974 12.5534 55.2588 12.9973 54.2353 12.9973C52.3486 12.9973 50.8072 11.4066 50.8072 9.44593C50.8072 7.48526 52.3363 5.88219 54.223 5.88219C55.0368 5.88219 55.9247 6.22746 56.5659 6.7947C56.6399 6.88102 56.7509 6.93035 56.8619 6.93035C56.9605 6.91802 57.0468 6.86869 57.1085 6.7947L57.7251 6.16581C57.7991 6.09182 57.8484 5.98084 57.8484 5.86986C57.8484 5.75888 57.7991 5.64789 57.7127 5.58624C56.6399 4.64906 55.5671 4.2298 54.223 4.2298C51.3498 4.2298 49.0069 6.58507 49.0069 9.48292C49.0069 12.3684 51.3375 14.6991 54.223 14.6991C55.5301 14.7114 56.8002 14.2058 57.7374 13.281C57.8237 13.1946 57.8607 13.0837 57.8607 12.9603C57.8607 12.8617 57.8237 12.7754 57.7497 12.7137L57.0715 12.0725ZM65.6294 12.985H61.9424V4.77237C61.93 4.56274 61.7574 4.37777 61.5478 4.37777H60.6106C60.3886 4.37777 60.216 4.55041 60.216 4.77237V14.1688C60.216 14.3908 60.3886 14.5634 60.6106 14.5634H65.6294C65.8514 14.5634 66.024 14.3908 66.024 14.1688V13.3919C66.024 13.17 65.8514 12.985 65.6294 12.985ZM73.99 5.96851C74.212 5.96851 74.3846 5.79587 74.3846 5.57391V4.7847C74.3846 4.56274 74.212 4.3901 73.99 4.3901H68.3546C68.1327 4.3901 67.96 4.56274 67.96 4.7847V14.1688C67.96 14.3908 68.1327 14.5634 68.3546 14.5634H73.99C74.212 14.5634 74.3846 14.3908 74.3846 14.1688V13.3919C74.3846 13.17 74.212 12.9973 73.99 12.9973H69.6617V10.1981H73.2995C73.5214 10.1981 73.6941 10.0255 73.6941 9.80354V9.01434C73.6941 8.79237 73.5091 8.61973 73.2995 8.61973H69.6617V5.98084H73.99V5.96851Z" fill="#979899"/>
</svg>
