<svg width="62" height="15" viewBox="0 0 62 15" fill="none" xmlns="http://www.w3.org/2000/svg">
<g clip-path="url(#clip0_1_1134)">
<path fill-rule="evenodd" clip-rule="evenodd" d="M13.9751 0.476746H0.234528V14.3055H13.9749V9.47831H11.6945C10.9085 11.2393 9.1392 12.4658 7.11443 12.4658C4.32306 12.4658 2.06251 10.1712 2.06251 7.38144C2.06251 4.59178 4.32306 2.31673 7.11443 2.31673C9.17846 2.31673 10.9477 3.58298 11.7341 5.38319H13.9751V0.476746ZM27.2819 9.47804C26.4761 11.239 24.7264 12.4654 22.6823 12.4655C19.9694 12.4655 17.7481 10.2893 17.6499 7.57895H29.5622V0.476746H15.8216V14.3052H29.5622V9.47804H27.2819ZM27.458 5.87768H17.8652C18.4745 3.60261 20.499 2.31675 22.6811 2.31675C24.8631 2.31675 26.7504 3.52333 27.458 5.87768ZM59.2335 7.38117C59.2335 10.1905 56.9924 12.4655 54.201 12.4655C51.4293 12.4655 49.1687 10.1708 49.1687 7.38117C49.1687 4.5915 51.4098 2.31645 54.201 2.31645C56.9924 2.31645 59.2335 4.57189 59.2335 7.38117ZM61.0809 0.476746H47.3405V14.3055H61.0809V0.476746ZM43.3422 9.47804H45.6226V14.3052H31.3906V0.476746H33.7102V7.38117C33.7102 10.4675 35.9905 12.4459 38.7031 12.4459C40.8064 12.4459 42.6541 11.2982 43.3422 9.47804Z" fill="#979899"/>
</g>
<defs>
<clipPath id="clip0_1_1134">
<rect width="61.3846" height="14" fill="white" transform="translate(0 0.476746)"/>
</clipPath>
</defs>
</svg>
