<svg width="66" height="24" viewBox="0 0 66 24" fill="none" xmlns="http://www.w3.org/2000/svg">
<path d="M2 19.6847H5.5252V11.2512C5.5252 8.54516 7.09196 7.07389 9.10263 7.07389C11.4005 7.07389 12.5495 8.54516 12.5495 10.936V19.6847H16.1269V10.5681C16.1269 6.3908 13.9073 4 10.0688 4C8.08424 4 6.51748 4.867 5.49909 6.2069V4.31527H2V19.6847Z" fill="#1F2937"/>
<path d="M31.9287 4.31527H28.4035V12.7488C28.4035 15.4548 26.9673 16.9261 25.0089 16.9261C22.7893 16.9261 21.7448 15.4548 21.7448 13.064V4.31527H18.1674V13.4319C18.1674 17.6092 20.3869 20 24.0427 20C26.0012 20 27.4635 19.2118 28.4296 17.9245V19.6847H31.9287V4.31527Z" fill="#1F2937"/>
<path d="M33.6905 19.6847H47.3213V16.532H38.2863L47.1646 7.5468V4.31527H33.8733V7.46798H42.5688L33.6905 16.4532V19.6847Z" fill="#1F2937"/>
<path d="M55.9546 20C60.3415 20 63.8667 16.4269 63.8667 12.0131C63.8667 7.52052 60.3415 4 55.9546 4C51.5415 4 48.0424 7.52052 48.0424 12.0131C48.0424 16.4269 51.5415 20 55.9546 20ZM55.9546 16.6634C53.4216 16.6634 51.5154 14.5616 51.5154 12.0131C51.5154 9.41215 53.4216 7.33662 55.9546 7.33662C58.4614 7.33662 60.3937 9.41215 60.3937 12.0131C60.3937 14.5616 58.4614 16.6634 55.9546 16.6634Z" fill="#1F2937"/>
</svg>
